<?xml version="1.0" encoding="UTF-8"?>
<svg width="386px" height="159px" viewBox="0 0 386 159" version="1.1" xmlns="http://www.w3.org/2000/svg" xmlns:xlink="http://www.w3.org/1999/xlink">
    <!-- Generator: Sketch 52.5 (67469) - http://www.bohemiancoding.com/sketch -->
    <title>g22</title>
    <desc>Created with Sketch.</desc>
    <g id="Page-1" stroke="none" stroke-width="1" fill="none" fill-rule="evenodd">
        <g id="logotype_horiz_white" transform="translate(-949.000000, -2439.000000)" fill="#161818">
            <g id="Capa-1">
                <g id="g22" transform="translate(949.000000, 2439.000000)">
                    <path d="M76.303772,152.453369 C75.888351,155.372192 73.64003,157.796753 70.764191,158.446533 C66.80085,159.341797 63.142113,156.942505 62.113731,153.374268 C28.708744,147.096313 2.592945,118.606567 0.779568,83.196289 C-1.168726,45.158691 25.59042,12.188232 62.024979,5.31958 C63.947517,4.957397 65.750412,6.385864 65.850418,8.339233 C65.932495,9.944946 64.821274,11.371704 63.241226,11.668701 C29.928749,17.94165 5.464142,48.090454 7.244968,82.865479 C8.901691,115.215088 32.743744,141.260376 63.254135,147.02002 C64.504593,145.334961 66.470436,144.201172 68.729179,144.085693 C73.222893,143.855347 76.972931,147.750366 76.303772,152.453369 Z M88.822525,147.016235 C87.242477,147.314209 86.131256,148.73999 86.213333,150.346191 C86.313347,152.299561 88.116234,153.728027 90.03833,153.365845 C116.235001,148.427124 137.429138,129.994995 146.547928,105.887451 L139.569183,105.887451 C130.788391,126.80542 111.941238,142.66333 88.822525,147.016235 Z M88.809555,11.665405 C112.625854,16.161133 132.377472,33.018311 140.687027,55.585571 L147.532883,55.585571 C138.940781,29.769653 116.807083,10.358765 89.95002,5.311157 C88.921646,1.74292 85.262901,-0.656372 81.299561,0.238892 C78.423721,0.888428 76.175407,3.312988 75.759987,6.231934 C75.09082,10.935059 78.840858,14.830078 83.33419,14.599854 C85.593765,14.484253 87.559158,13.350464 88.809555,11.665405 Z" id="path135" fill-rule="nonzero"></path>
                    <g id="g23" transform="translate(24.000000, 62.000000)">
                        <path d="M29.625397,17.98584 C28.304176,17.128296 26.697105,16.444214 24.805016,15.932495 C22.911652,15.420898 20.751648,15 18.324165,14.67041 C16.574173,14.405884 15.065392,14.158691 13.797897,13.928345 C12.530022,13.697388 11.495026,13.442017 10.692101,13.160767 C9.888344,12.880737 9.299164,12.526245 8.924561,12.097534 C8.549576,11.669189 8.361633,11.156738 8.361633,10.563721 C8.361633,9.969604 8.504181,9.449585 8.790405,9.004517 C9.075813,8.559204 9.540443,8.188477 10.182899,7.891113 C10.825424,7.594116 11.655815,7.371338 12.673767,7.222778 C13.691277,7.075073 14.931244,7 16.395836,7 C17.645401,7 18.850403,7.049927 20.011276,7.149048 C21.171265,7.247437 22.188766,7.479126 23.063736,7.841553 C23.938759,8.204956 24.63456,8.724243 25.152916,9.400513 C25.669998,10.077026 25.929588,10.975708 25.929588,12.097534 L33.267097,12.097534 C33.267097,9.920044 32.892113,8.081177 32.142906,6.579712 C31.392937,5.079468 30.321259,3.867187 28.929146,2.942993 C27.536659,2.020386 25.840385,1.352051 23.840851,0.938721 C21.840805,0.526733 19.57373,0.320557 17.038734,0.320557 C11.289162,0.320557 7.076656,1.154175 4.398357,2.819092 C1.72044,4.485352 0.381226,7.231689 0.381226,11.05835 C0.381226,12.872437 0.7379,14.390381 1.4529,15.610107 C2.166248,16.831299 3.166653,17.845703 4.45208,18.653687 C5.737061,19.462158 7.272476,20.105835 9.058327,20.583618 C10.843353,21.061768 12.807091,21.482178 14.949554,21.845093 C16.162949,22.043701 17.413338,22.224487 18.698769,22.389526 C19.984573,22.555054 21.153336,22.7771 22.207077,23.057373 C23.260002,23.338623 24.117096,23.725464 24.777931,24.220093 C25.438316,24.714966 25.76918,25.391724 25.76918,26.248779 C25.76918,27.535034 25.081261,28.459229 23.706635,29.020508 C22.331696,29.581787 20.234184,29.860718 17.413338,29.860718 C16.127914,29.860718 14.877899,29.803833 13.664574,29.688354 C12.450417,29.572876 11.388344,29.334106 10.477524,28.970947 C9.567078,28.608032 8.84375,28.088501 8.307915,27.411743 C7.7729,26.735718 7.504982,25.820435 7.504982,24.665405 L0.167095,24.665405 C0.167095,26.842773 0.550407,28.682007 1.318752,30.183228 C2.085823,31.684204 3.174984,32.89624 4.586231,33.819702 C5.995823,34.743286 7.727505,35.411621 9.781273,35.823608 C11.834152,36.236084 14.12793,36.442139 16.6642,36.442139 C22.554977,36.442139 26.867111,35.618652 29.598755,33.968628 C32.330399,32.319458 33.695801,29.631348 33.695801,25.902832 C33.695801,24.022461 33.3479,22.44751 32.651657,21.176758 C31.955032,19.907227 30.945854,18.843628 29.625397,17.98584 Z" id="path136"></path>
                        <path d="M69.393356,4.105957 C68.12542,3.099609 66.492088,2.341797 64.492935,1.82959 C62.492508,1.318481 60.028725,1.062622 57.101639,1.062622 L47.835426,1.062622 L40.175827,1.062622 L40.175827,7.494873 L40.175827,18.529541 L40.175827,24.962402 L40.175827,35.700073 L47.835426,35.700073 L47.835426,24.962402 L57.101639,24.962402 C60.028725,24.962402 62.501663,24.714966 64.519196,24.220093 C66.536278,23.725464 68.169983,22.975708 69.419998,21.968628 C70.669563,20.963379 71.570854,19.716919 72.125,18.232788 C72.678314,16.748413 72.955399,15.016968 72.955399,13.037476 C72.955399,11.05835 72.678314,9.325684 72.125,7.841553 C71.570854,6.357422 70.660408,5.112061 69.393356,4.105957 Z M64.653343,15.462036 C64.438766,16.154541 64.028305,16.723389 63.421257,17.169556 C62.813766,17.614502 61.992912,17.952515 60.957474,18.182983 C59.921654,18.414673 58.600815,18.529541 56.993752,18.529541 L47.835426,18.529541 L47.835426,7.494873 L56.993752,7.494873 C58.600815,7.494873 59.921654,7.61084 60.957474,7.841553 C61.992912,8.072998 62.813766,8.419678 63.421257,8.880981 C64.028305,9.343262 64.438766,9.920044 64.653343,10.612061 C64.867477,11.305786 64.974159,12.114258 64.974159,13.037476 C64.974159,13.960815 64.867477,14.768799 64.653343,15.462036 Z" id="path137" fill-rule="nonzero"></path>
                        <polygon id="path138" points="92.36998 12.325073 83.773743 1.062622 74.614594 1.062622 88.540024 19.327148 88.540024 35.700073 96.199554 35.700073 96.199554 19.327148 110.124985 1.062622 100.966278 1.062622"></polygon>
                        <path d="M129.835007,21.400024 L142.969528,21.400024 C142.425034,22.527832 141.901276,23.654541 141.269943,24.789307 C140.323395,26.48877 139.252106,28.01416 138.055817,29.366333 C136.859528,30.71875 135.493729,31.825073 133.959213,32.682129 C132.423279,33.540405 130.655807,33.968628 128.656265,33.968628 C126.299545,33.968628 124.201721,33.664307 122.362915,33.053467 C120.523712,32.443359 118.970367,31.502075 117.703384,30.232544 C116.435379,28.963257 115.471664,27.337402 114.811203,25.358398 C114.149612,23.378784 113.820404,21.021362 113.820404,18.282349 C113.820404,15.578247 114.087936,13.252563 114.623276,11.305786 C115.159103,9.359619 116.016266,7.752075 117.194626,6.481201 C118.372864,5.211182 119.899124,4.279175 121.773788,3.685059 C123.648331,3.090698 125.942108,2.794922 128.656265,2.794922 C130.512497,2.794922 132.360474,2.918823 134.199539,3.165771 C136.038727,3.413208 137.681213,3.900513 139.127487,4.625732 C140.573761,5.351318 141.752121,6.389893 142.662445,7.74292 C143.572876,9.096313 144.027969,10.877563 144.027969,13.087036 L146.706268,13.087036 C146.706268,10.777832 146.312469,8.815308 145.527908,7.198608 C144.741699,5.58252 143.599579,4.263428 142.100403,3.23999 C140.600464,2.217407 138.752502,1.47583 136.556259,1.012939 C134.360382,0.551636 131.851715,0.320557 129.031631,0.320557 C122.853348,0.320557 118.28334,1.788696 115.319962,4.724243 C112.35582,7.660767 110.874573,12.195923 110.874573,18.332031 C110.874573,21.367187 111.267105,24.022461 112.052933,26.29834 C112.837479,28.574219 113.980881,30.463257 115.48082,31.964233 C116.980377,33.465332 118.836609,34.587158 121.0504,35.329224 C123.264572,36.071289 125.817505,36.442139 128.710052,36.442139 C131.06665,36.442139 133.155838,35.955078 134.976715,34.982666 C136.79747,34.009644 138.385788,32.739014 139.743301,31.172485 C141.099564,29.605957 142.277924,27.857544 143.278381,25.92749 C143.673721,25.163818 143.944946,24.421753 144.295898,23.665405 L144.295898,35.700073 L146.973816,35.700073 L146.973816,21.400024 L146.973816,20.855469 L146.973816,18.925781 L129.835007,18.925781 L129.835007,21.400024 Z" id="path139"></path>
                        <polygon id="path140" points="156.989166 1.062622 154.311249 1.062622 154.311249 33.226318 154.311249 35.700073 156.989166 35.700073 182.162491 35.700073 182.162491 33.226318 156.989166 33.226318"></polygon>
                        <path d="M202.194214,1.062622 L185.751221,35.700073 L188.750854,35.700073 L192.297501,28.228271 L215.090057,28.228271 L218.637085,35.700073 L221.636719,35.700073 L205.193329,1.062622 L202.194214,1.062622 Z M193.472046,25.753906 L203.693787,4.22168 L213.915405,25.753906 L193.472046,25.753906 Z" id="path141" fill-rule="nonzero"></path>
                        <path d="M250.986633,20.039185 C249.701202,19.264526 248.085419,18.62085 246.139526,18.109253 C244.193268,17.598267 241.916656,17.128296 239.310455,16.699341 C237.524536,16.401978 235.890839,16.064575 234.409607,15.684082 C232.92746,15.30542 231.659973,14.826782 230.60672,14.249512 C229.552979,13.672485 228.732056,12.987549 228.143311,12.195923 C227.554199,11.404297 227.259583,10.463989 227.259583,9.375366 C227.259583,8.353271 227.446625,7.454468 227.822113,6.678833 C228.196716,5.903687 228.848267,5.244507 229.776642,4.700073 C230.704651,4.155273 231.963348,3.743286 233.552948,3.462036 C235.141266,3.182861 237.131653,3.04248 239.524597,3.04248 C241.166687,3.04248 242.720032,3.133179 244.184631,3.314331 C245.648315,3.49585 246.942535,3.900513 248.067474,4.526611 C249.192444,5.153198 250.084564,6.068726 250.745392,7.272949 C251.405853,8.477051 251.736206,10.085327 251.736206,12.097534 L254.414642,12.097534 C254.414642,9.920044 254.074615,8.081177 253.397125,6.579712 C252.718353,5.079468 251.744598,3.867187 250.477875,2.942993 C249.210358,2.020386 247.656647,1.352051 245.818329,0.938721 C243.978394,0.526733 241.898743,0.320557 239.578766,0.320557 C234.32962,0.320557 230.473328,1.030762 228.009552,2.448364 C225.545898,3.867187 224.313751,6.159546 224.313751,9.325684 C224.313751,11.074951 224.679565,12.49292 225.411621,13.581665 C226.142883,14.67041 227.152527,15.569824 228.437561,16.278442 C229.723358,16.988403 231.267548,17.564453 233.070374,18.010742 C234.873352,18.455811 236.846313,18.925781 238.989136,19.420898 C240.131653,19.651367 241.444153,19.883057 242.925781,20.113403 C244.407043,20.345093 245.808807,20.70752 247.130463,21.202148 C248.450867,21.696533 249.567047,22.406372 250.477875,23.329956 C251.388306,24.25415 251.843781,25.540527 251.843781,27.189697 C251.843781,29.498413 250.807953,31.205322 248.737091,32.311279 C246.665833,33.416504 243.488708,33.968628 239.203278,33.968628 C237.524536,33.968628 235.909546,33.869263 234.356201,33.671631 C232.802979,33.473755 231.437073,33.053467 230.258698,32.40918 C229.080475,31.766602 228.143311,30.834229 227.446625,29.61377 C226.750458,28.393311 226.402557,26.743408 226.402557,24.665405 L223.72464,24.665405 C223.72464,26.842773 224.081299,28.682007 224.79541,30.183228 C225.509521,31.684204 226.517883,32.89624 227.822113,33.819702 C229.124969,34.743286 230.722443,35.411621 232.615784,35.823608 C234.507507,36.236084 236.632538,36.442139 238.989136,36.442139 C244.452026,36.442139 248.450867,35.707397 250.986633,34.240479 C253.521606,32.772949 254.789124,30.373413 254.789124,27.040405 C254.789124,25.391724 254.476685,24.006226 253.852081,22.883667 C253.227112,21.763428 252.272034,20.814087 250.986633,20.039185 Z" id="path142"></path>
                        <path d="M287.193695,20.039185 C285.908386,19.264526 284.292114,18.62085 282.346619,18.109253 C280.399963,17.598267 278.123749,17.128296 275.517548,16.699341 C273.731628,16.401978 272.0979,16.064575 270.616669,15.684082 C269.134521,15.30542 267.867035,14.826782 266.813782,14.249512 C265.76004,13.672485 264.939117,12.987549 264.350403,12.195923 C263.761292,11.404297 263.466278,10.463989 263.466278,9.375366 C263.466278,8.353271 263.653687,7.454468 264.029205,6.678833 C264.403809,5.903687 265.054962,5.244507 265.983704,4.700073 C266.911713,4.155273 268.170441,3.743286 269.759644,3.462036 C271.348328,3.182861 273.338715,3.04248 275.731659,3.04248 C277.373779,3.04248 278.927124,3.133179 280.391693,3.314331 C281.855408,3.49585 283.149597,3.900513 284.274567,4.526611 C285.399139,5.153198 286.29126,6.068726 286.952087,7.272949 C287.612915,8.477051 287.943268,10.085327 287.943268,12.097534 L290.621704,12.097534 C290.621704,9.920044 290.281311,8.081177 289.604187,6.579712 C288.925446,5.079468 287.95166,3.867187 286.68457,2.942993 C285.417053,2.020386 283.863708,1.352051 282.025421,0.938721 C280.185455,0.526733 278.105804,0.320557 275.785461,0.320557 C270.536682,0.320557 266.68042,1.030762 264.216248,2.448364 C261.752441,3.867187 260.520447,6.159546 260.520447,9.325684 C260.520447,11.074951 260.886261,12.49292 261.618683,13.581665 C262.349976,14.67041 263.359589,15.569824 264.644623,16.278442 C265.930054,16.988403 267.474121,17.564453 269.277466,18.010742 C271.080414,18.455811 273.053375,18.925781 275.195831,19.420898 C276.338715,19.651367 277.650848,19.883057 279.132477,20.113403 C280.614227,20.345093 282.015869,20.70752 283.337524,21.202148 C284.657928,21.696533 285.773743,22.406372 286.68457,23.329956 C287.595367,24.25415 288.050476,25.540527 288.050476,27.189697 C288.050476,29.498413 287.014526,31.205322 284.944153,32.311279 C282.872925,33.416504 279.695404,33.968628 275.410461,33.968628 C273.731628,33.968628 272.116608,33.869263 270.563385,33.671631 C269.01004,33.473755 267.644135,33.053467 266.465881,32.40918 C265.287537,31.766602 264.350403,30.834229 263.653687,29.61377 C262.95752,28.393311 262.609619,26.743408 262.609619,24.665405 L259.931702,24.665405 C259.931702,26.842773 260.287872,28.682007 261.002502,30.183228 C261.716736,31.684204 262.724945,32.89624 264.029205,33.819702 C265.332031,34.743286 266.929626,35.411621 268.822876,35.823608 C270.714203,36.236084 272.83963,36.442139 275.195831,36.442139 C280.659119,36.442139 284.657928,35.707397 287.193695,34.240479 C289.728302,32.772949 290.996307,30.373413 290.996307,27.040405 C290.996307,25.391724 290.683746,24.006226 290.059174,22.883667 C289.433807,21.763428 288.479614,20.814087 287.193695,20.039185 Z" id="path143"></path>
                        <polygon id="path144" points="300.154633 19.618774 323.185852 19.618774 323.185852 17.143799 300.154633 17.143799 300.154633 3.537109 325.327942 3.537109 325.327942 1.062622 300.154633 1.062622 297.476715 1.062622 297.476715 3.537109 297.476715 17.143799 297.476715 19.618774 297.476715 33.226318 297.476715 35.700073 300.154633 35.700073 325.86377 35.700073 325.86377 33.226318 300.154633 33.226318"></polygon>
                        <path d="M360.382843,22.883667 C359.758392,21.763428 358.803314,20.814087 357.517517,20.039185 C356.232086,19.264526 354.616302,18.62085 352.670807,18.109253 C350.724182,17.598267 348.447937,17.128296 345.841217,16.699341 C344.05545,16.401978 342.422119,16.064575 340.940369,15.684082 C339.45874,15.30542 338.190857,14.826782 337.137878,14.249512 C336.084106,13.672485 335.263336,12.987549 334.674591,12.195923 C334.084961,11.404297 333.790466,10.463989 333.790466,9.375366 C333.790466,8.353271 333.977905,7.454468 334.352875,6.678833 C334.727875,5.903687 335.37915,5.244507 336.307526,4.700073 C337.235413,4.155273 338.494629,3.743286 340.08371,3.462036 C341.672516,3.182861 343.662903,3.04248 346.055359,3.04248 C347.697449,3.04248 349.251312,3.133179 350.715393,3.314331 C352.17923,3.49585 353.473816,3.900513 354.598389,4.526611 C355.723328,5.153198 356.615448,6.068726 357.276672,7.272949 C357.937134,8.477051 358.267487,10.085327 358.267487,12.097534 L360.945404,12.097534 C360.945404,9.920044 360.605896,8.081177 359.927887,6.579712 C359.249115,5.079468 358.275879,3.867187 357.008759,2.942993 C355.741272,2.020386 354.187531,1.352051 352.349609,0.938721 C350.509521,0.526733 348.429993,0.320557 346.109528,0.320557 C340.860382,0.320557 337.004608,1.030762 334.540833,2.448364 C332.07666,3.867187 330.844635,6.159546 330.844635,9.325684 C330.844635,11.074951 331.210449,12.49292 331.942871,13.581665 C332.674164,14.67041 333.683289,15.569824 334.968689,16.278442 C336.25412,16.988403 337.798309,17.564453 339.601654,18.010742 C341.404236,18.455811 343.377441,18.925781 345.52002,19.420898 C346.662903,19.651367 347.975037,19.883057 349.456665,20.113403 C350.938293,20.345093 352.339935,20.70752 353.661621,21.202148 C354.981628,21.696533 356.098328,22.406372 357.008759,23.329956 C357.919189,24.25415 358.374542,25.540527 358.374542,27.189697 C358.374542,29.498413 357.338715,31.205322 355.267975,32.311279 C353.197113,33.416504 350.019592,33.968628 345.735046,33.968628 C344.05545,33.968628 342.440796,33.869263 340.887085,33.671631 C339.334106,33.473755 337.967957,33.053467 336.789581,32.40918 C335.611237,31.766602 334.674591,30.834229 333.977905,29.61377 C333.281708,28.393311 332.933685,26.743408 332.933685,24.665405 L330.255768,24.665405 C330.255768,26.842773 330.612061,28.682007 331.326691,30.183228 C332.040405,31.684204 333.048767,32.89624 334.352875,33.819702 C335.655853,34.743286 337.253326,35.411621 339.146698,35.823608 C341.038391,36.236084 343.1633,36.442139 345.52002,36.442139 C350.982941,36.442139 354.981628,35.707397 357.517517,34.240479 C360.052887,32.772949 361.320374,30.373413 361.320374,27.040405 C361.320374,25.391724 361.007446,24.006226 360.382843,22.883667 Z" id="path145"></path>
                    </g>
                </g>
            </g>
        </g>
    </g>
</svg>