<?xml version="1.0" encoding="UTF-8"?>
<svg width="294px" height="295px" viewBox="0 0 294 295" version="1.1" xmlns="http://www.w3.org/2000/svg" xmlns:xlink="http://www.w3.org/1999/xlink">
    <!-- Generator: Sketch 52.5 (67469) - http://www.bohemiancoding.com/sketch -->
    <title>path146</title>
    <desc>Created with Sketch.</desc>
    <g id="Page-1" stroke="none" stroke-width="1" fill="none" fill-rule="evenodd">
        <g id="logotype_horiz_white" transform="translate(-537.000000, -2370.000000)" fill="#161818" fill-rule="nonzero">
            <g id="Capa-1">
                <path d="M753.320816,2570.23584 C751.945801,2572.04321 749.280853,2572.21484 747.675446,2570.60913 L747.675003,2570.60913 C746.35498,2569.28931 746.203354,2567.19495 747.333771,2565.7096 C771.16539,2534.39014 768.798309,2489.37415 740.212112,2460.78784 C713.619598,2434.19531 672.809601,2430.29419 642.033325,2449.06421 C642.266266,2451.48962 641.454559,2453.99585 639.597046,2455.85266 C635.903351,2459.54626 629.641663,2459.10657 626.559998,2454.53296 C624.647064,2451.69385 624.698761,2447.85547 626.672089,2445.05835 C629.391296,2441.20361 634.411224,2440.42554 638.073334,2442.70081 C671.747894,2422.12585 716.418762,2426.3645 745.526688,2455.47339 C761.335815,2471.28259 769.80043,2491.68384 770.950439,2512.42053 L830.092484,2512.42053 C829.033333,2503.50256 825.116661,2494.8584 818.273727,2488.01538 L712.984589,2382.7262 C696.792908,2366.53455 670.540802,2366.53455 654.348755,2382.7262 L549.059601,2488.01538 C542.216675,2494.8584 538.299561,2503.50256 537.240845,2512.42053 L596.390411,2512.42053 C597.34375,2495.41589 603.207886,2478.63623 614.012512,2464.4303 C615.387085,2462.62341 618.05249,2462.45178 619.658325,2464.0575 C620.977905,2465.37744 621.129974,2467.47168 619.999573,2468.95715 C596.167938,2500.27661 598.5354,2545.29248 627.121216,2573.87891 C653.713715,2600.47131 694.523361,2604.37256 725.300018,2585.60242 C725.067062,2583.17749 725.87915,2580.67078 727.736267,2578.81409 C731.429977,2575.12036 737.691681,2575.56006 740.773315,2580.13367 C742.686264,2582.97278 742.634583,2586.81165 740.660858,2589.60889 C737.941666,2593.46301 732.922104,2594.2417 729.259995,2591.96631 C695.585434,2612.54077 650.915009,2608.30164 621.806641,2579.19373 C605.997528,2563.38415 597.532898,2542.98291 596.382904,2522.24609 L537.240845,2522.24609 C538.299561,2531.16419 542.216675,2539.80823 549.059601,2546.65137 L654.348755,2651.94055 C670.540802,2668.13214 696.792908,2668.13214 712.984589,2651.94055 L818.273727,2546.65137 C825.116661,2539.80823 829.033783,2531.16419 830.092484,2522.24609 L770.942932,2522.24609 C769.989578,2539.25134 764.125427,2556.0304 753.320816,2570.23584 Z M710.573318,2544.24048 C695.713348,2559.10046 671.61998,2559.10046 656.76001,2544.24048 C641.89917,2529.37988 641.89917,2505.28674 656.76001,2490.42627 C671.61998,2475.56616 695.713348,2475.56616 710.573318,2490.42627 C725.433716,2505.28674 725.433716,2529.37988 710.573318,2544.24048 Z" id="path146"></path>
            </g>
        </g>
    </g>
</svg>