<?xml version="1.0" encoding="UTF-8"?>
<svg width="386px" height="159px" viewBox="0 0 386 159" version="1.1" xmlns="http://www.w3.org/2000/svg" xmlns:xlink="http://www.w3.org/1999/xlink">
    <title>Spyglasses</title>
    <defs>
        <linearGradient x1="-54.8107139%" y1="56.8065379%" x2="77.9777532%" y2="-46.8460773%" id="linearGradient-1">
            <stop stop-color="#C95920" offset="7.7163%"></stop>
            <stop stop-color="#FFB970" offset="36.4823%"></stop>
            <stop stop-color="#FFB970" offset="48.0139%"></stop>
            <stop stop-color="#D56E29" offset="72.2887%"></stop>
            <stop stop-color="#B95B17" offset="100%"></stop>
        </linearGradient>
    </defs>
    <g id="Page-1" stroke="none" stroke-width="1" fill="none" fill-rule="evenodd">
        <g id="logotype_horiz_white" transform="translate(-949.000000, -605.000000)">
            <g id="Capa-1">
                <g id="g26" transform="translate(949.000000, 605.000000)">
                    <path d="M76.303772,152.61499 C75.888351,155.53418 73.64003,157.95874 70.764191,158.608398 C66.80085,159.503662 63.142113,157.104492 62.113731,153.536377 C28.708744,147.258301 2.592945,118.768799 0.779568,83.358398 C-1.168726,45.320801 25.59042,12.350098 62.024979,5.481689 C63.947517,5.119141 65.750412,6.547852 65.850418,8.501221 C65.932495,10.107178 64.821274,11.533691 63.241226,11.830811 C29.928749,18.103271 5.464142,48.252441 7.244968,83.027588 C8.901691,115.377197 32.743744,141.422607 63.254135,147.182129 C64.504593,145.49707 66.470436,144.363281 68.729179,144.247559 C73.222893,144.017578 76.972931,147.912598 76.303772,152.61499 Z M88.822525,147.178223 C87.242477,147.47583 86.131256,148.9021 86.213333,150.508301 C86.313347,152.46167 88.116234,153.889893 90.03833,153.527832 C116.235001,148.589111 137.429138,130.156982 146.547928,106.049561 L139.569183,106.049561 C130.788391,126.967529 111.941238,142.825439 88.822525,147.178223 Z M88.809555,11.827393 C112.625854,16.322998 132.377472,33.179932 140.687027,55.747559 L147.532883,55.747559 C138.940781,29.931641 116.807083,10.520752 89.95002,5.473389 C88.921646,1.905029 85.262901,-0.494141 81.299561,0.400879 C78.423721,1.050293 76.175407,3.474854 75.759987,6.394287 C75.09082,11.09668 78.840858,14.992187 83.33419,14.762207 C85.593765,14.64624 87.559158,13.511963 88.809555,11.827393 Z" id="path158" fill="url(#linearGradient-1)" fill-rule="nonzero"></path>
                    <g id="g27" transform="translate(24.000000, 62.000000)" fill="#161818">
                        <path d="M29.625397,18.147461 C28.304176,17.290039 26.697105,16.605713 24.805016,16.094482 C22.911652,15.583008 20.751648,15.162109 18.324165,14.83252 C16.574173,14.567871 15.065392,14.320801 13.797897,14.090332 C12.530022,13.859619 11.495026,13.604248 10.692101,13.322998 C9.888344,13.042969 9.299164,12.688232 8.924561,12.259521 C8.549576,11.831299 8.361633,11.318848 8.361633,10.725342 C8.361633,10.131348 8.504181,9.611328 8.790405,9.16626 C9.075813,8.721191 9.540443,8.350342 10.182899,8.053223 C10.825424,7.756348 11.655815,7.533203 12.673767,7.38501 C13.691277,7.237061 14.931244,7.162109 16.395836,7.162109 C17.645401,7.162109 18.850403,7.21167 20.011276,7.311279 C21.171265,7.409668 22.188766,7.640869 23.063736,8.003662 C23.938759,8.367187 24.63456,8.88623 25.152916,9.5625 C25.669998,10.239258 25.929588,11.137939 25.929588,12.259521 L33.267097,12.259521 C33.267097,10.082031 32.892113,8.243408 32.142906,6.741699 C31.392937,5.241211 30.321259,4.028809 28.929146,3.10498 C27.536659,2.182617 25.840385,1.51416 23.840851,1.10083 C21.840805,0.688721 19.57373,0.482422 17.038734,0.482422 C11.289162,0.482422 7.076656,1.316162 4.398357,2.981201 C1.72044,4.646973 0.381226,7.393799 0.381226,11.220459 C0.381226,13.03418 0.7379,14.55249 1.4529,15.772217 C2.166248,16.99292 3.166653,18.007812 4.45208,18.81543 C5.737061,19.624268 7.272476,20.267822 9.058327,20.74585 C10.843353,21.223877 12.807091,21.644043 14.949554,22.00708 C16.162949,22.205322 17.413338,22.386719 18.698769,22.551758 C19.984573,22.717041 21.153336,22.939209 22.207077,23.219727 C23.260002,23.500732 24.117096,23.887451 24.777931,24.38208 C25.438316,24.877197 25.76918,25.553223 25.76918,26.4104 C25.76918,27.697021 25.081261,28.62085 23.706635,29.182373 C22.331696,29.743652 20.234184,30.022949 17.413338,30.022949 C16.127914,30.022949 14.877899,29.96582 13.664574,29.850342 C12.450417,29.734863 11.388344,29.496338 10.477524,29.132812 C9.567078,28.77002 8.84375,28.25 8.307915,27.57373 C7.7729,26.897949 7.504982,25.982422 7.504982,24.827148 L0.167095,24.827148 C0.167095,27.004639 0.550407,28.844238 1.318752,30.345459 C2.085823,31.846191 3.174984,33.05835 4.586231,33.981201 C5.995823,34.905518 7.727505,35.57373 9.781273,35.98584 C11.834152,36.397949 14.12793,36.604248 16.6642,36.604248 C22.554977,36.604248 26.867111,35.780762 29.598755,34.130371 C32.330399,32.481689 33.695801,29.793457 33.695801,26.064941 C33.695801,24.18457 33.3479,22.609619 32.651657,21.338867 C31.955032,20.069092 30.945854,19.005371 29.625397,18.147461 Z" id="path159"></path>
                        <path d="M69.393356,4.267822 C68.12542,3.261719 66.492088,2.503418 64.492935,1.991699 C62.492508,1.480469 60.028725,1.224609 57.101639,1.224609 L47.835426,1.224609 L40.175827,1.224609 L40.175827,7.656738 L40.175827,18.69165 L40.175827,25.124268 L40.175827,35.862061 L47.835426,35.862061 L47.835426,25.124268 L57.101639,25.124268 C60.028725,25.124268 62.501663,24.877197 64.519196,24.38208 C66.536278,23.887451 68.169983,23.137451 69.419998,22.130371 C70.669563,21.125 71.570854,19.878662 72.125,18.394531 C72.678314,16.9104 72.955399,15.179199 72.955399,13.199219 C72.955399,11.220459 72.678314,9.487793 72.125,8.003662 C71.570854,6.519531 70.660408,5.27417 69.393356,4.267822 Z M64.653343,15.624268 C64.438766,16.31665 64.028305,16.885498 63.421257,17.331299 C62.813766,17.776123 61.992912,18.114502 60.957474,18.344971 C59.921654,18.57666 58.600815,18.69165 56.993752,18.69165 L47.835426,18.69165 L47.835426,7.656738 L56.993752,7.656738 C58.600815,7.656738 59.921654,7.772949 60.957474,8.003662 C61.992912,8.234863 62.813766,8.581543 63.421257,9.042969 C64.028305,9.505371 64.438766,10.082031 64.653343,10.77417 C64.867477,11.468018 64.974159,12.276367 64.974159,13.199219 C64.974159,14.122803 64.867477,14.930908 64.653343,15.624268 Z" id="path160" fill-rule="nonzero"></path>
                        <polygon id="path161" points="92.36998 12.487061 83.773743 1.224609 74.614594 1.224609 88.540024 19.489258 88.540024 35.862061 96.199554 35.862061 96.199554 19.489258 110.124985 1.224609 100.966278 1.224609"></polygon>
                        <path d="M129.835007,21.562012 L142.969528,21.562012 C142.425034,22.689941 141.901276,23.816162 141.269943,24.951172 C140.323395,26.650391 139.252106,28.175781 138.055817,29.52832 C136.859528,30.880859 135.493729,31.986572 133.959213,32.844238 C132.423279,33.702148 130.655807,34.130371 128.656265,34.130371 C126.299545,34.130371 124.201721,33.826172 122.362915,33.215088 C120.523712,32.60498 118.970367,31.664062 117.703384,30.394531 C116.435379,29.125 115.471664,27.499512 114.811203,25.520508 C114.149612,23.540771 113.820404,21.18335 113.820404,18.44458 C113.820404,15.740479 114.087936,13.414551 114.623276,11.468018 C115.159103,9.521729 116.016266,7.913818 117.194626,6.643311 C118.372864,5.373291 119.899124,4.440918 121.773788,3.847168 C123.648331,3.25293 125.942108,2.957031 128.656265,2.957031 C130.512497,2.957031 132.360474,3.080322 134.199539,3.327881 C136.038727,3.575439 137.681213,4.0625 139.127487,4.787842 C140.573761,5.513428 141.752121,6.552002 142.662445,7.905029 C143.572876,9.258301 144.027969,11.039551 144.027969,13.249023 L146.706268,13.249023 C146.706268,10.939941 146.312469,8.977051 145.527908,7.36084 C144.741699,5.744629 143.599579,4.425537 142.100403,3.4021 C140.600464,2.379639 138.752502,1.637939 136.556259,1.175049 C134.360382,0.713623 131.851715,0.482422 129.031631,0.482422 C122.853348,0.482422 118.28334,1.950928 115.319962,4.88623 C112.35582,7.822998 110.874573,12.35791 110.874573,18.494141 C110.874573,21.529297 111.267105,24.18457 112.052933,26.460449 C112.837479,28.736328 113.980881,30.625488 115.48082,32.126221 C116.980377,33.626953 118.836609,34.749268 121.0504,35.490967 C123.264572,36.23291 125.817505,36.604248 128.710052,36.604248 C131.06665,36.604248 133.155838,36.117187 134.976715,35.144531 C136.79747,34.171631 138.385788,32.901367 139.743301,31.334717 C141.099564,29.767822 142.277924,28.019531 143.278381,26.0896 C143.673721,25.325928 143.944946,24.58374 144.295898,23.827393 L144.295898,35.862061 L146.973816,35.862061 L146.973816,21.562012 L146.973816,21.017578 L146.973816,19.087891 L129.835007,19.087891 L129.835007,21.562012 Z" id="path162"></path>
                        <polygon id="path163" points="156.989166 1.224609 154.311249 1.224609 154.311249 33.388428 154.311249 35.862061 156.989166 35.862061 182.162491 35.862061 182.162491 33.388428 156.989166 33.388428"></polygon>
                        <path d="M202.194214,1.224609 L185.751221,35.862061 L188.750854,35.862061 L192.297501,28.390381 L215.090057,28.390381 L218.637085,35.862061 L221.636719,35.862061 L205.193329,1.224609 L202.194214,1.224609 Z M193.472046,25.915771 L203.693787,4.383789 L213.915405,25.915771 L193.472046,25.915771 Z" id="path164" fill-rule="nonzero"></path>
                        <path d="M250.986633,20.201172 C249.701202,19.426758 248.085419,18.782471 246.139526,18.27124 C244.193268,17.760498 241.916656,17.290039 239.310455,16.861328 C237.524536,16.564209 235.890839,16.226807 234.409607,15.845947 C232.92746,15.467529 231.659973,14.98877 230.60672,14.411621 C229.552979,13.834229 228.732056,13.149658 228.143311,12.35791 C227.554199,11.565918 227.259583,10.626221 227.259583,9.537598 C227.259583,8.514893 227.446625,7.616699 227.822113,6.84082 C228.196716,6.065918 228.848267,5.40625 229.776642,4.862061 C230.704651,4.317627 231.963348,3.905518 233.552948,3.624023 C235.141266,3.344971 237.131653,3.20459 239.524597,3.20459 C241.166687,3.20459 242.720032,3.29541 244.184631,3.476318 C245.648315,3.657959 246.942535,4.0625 248.067474,4.688721 C249.192444,5.31543 250.084564,6.230957 250.745392,7.43457 C251.405853,8.63916 251.736206,10.247559 251.736206,12.259521 L254.414642,12.259521 C254.414642,10.082031 254.074615,8.243408 253.397125,6.741699 C252.718353,5.241211 251.744598,4.028809 250.477875,3.10498 C249.210358,2.182617 247.656647,1.51416 245.818329,1.10083 C243.978394,0.688721 241.898743,0.482422 239.578766,0.482422 C234.32962,0.482422 230.473328,1.192871 228.009552,2.610352 C225.545898,4.028809 224.313751,6.321533 224.313751,9.487793 C224.313751,11.237061 224.679565,12.655029 225.411621,13.743408 C226.142883,14.83252 227.152527,15.731689 228.437561,16.439941 C229.723358,17.150391 231.267548,17.726562 233.070374,18.172852 C234.873352,18.61792 236.846313,19.087891 238.989136,19.583008 C240.131653,19.813232 241.444153,20.044922 242.925781,20.275391 C244.407043,20.50708 245.808807,20.869141 247.130463,21.364258 C248.450867,21.858887 249.567047,22.568359 250.477875,23.491699 C251.388306,24.415771 251.843781,25.702148 251.843781,27.351807 C251.843781,29.6604 250.807953,31.367432 248.737091,32.4729 C246.665833,33.578857 243.488708,34.130371 239.203278,34.130371 C237.524536,34.130371 235.909546,34.03125 234.356201,33.833252 C232.802979,33.635742 231.437073,33.215088 230.258698,32.571289 C229.080475,31.928711 228.143311,30.996338 227.446625,29.775391 C226.750458,28.55542 226.402557,26.905518 226.402557,24.827148 L223.72464,24.827148 C223.72464,27.004639 224.081299,28.844238 224.79541,30.345459 C225.509521,31.846191 226.517883,33.05835 227.822113,33.981201 C229.124969,34.905518 230.722443,35.57373 232.615784,35.98584 C234.507507,36.397949 236.632538,36.604248 238.989136,36.604248 C244.452026,36.604248 248.450867,35.869629 250.986633,34.402588 C253.521606,32.935059 254.789124,30.5354 254.789124,27.202393 C254.789124,25.553223 254.476685,24.168213 253.852081,23.045898 C253.227112,21.925293 252.272034,20.976318 250.986633,20.201172 Z" id="path165"></path>
                        <path d="M287.193695,20.201172 C285.908386,19.426758 284.292114,18.782471 282.346619,18.27124 C280.399963,17.760498 278.123749,17.290039 275.517548,16.861328 C273.731628,16.564209 272.0979,16.226807 270.616669,15.845947 C269.134521,15.467529 267.867035,14.98877 266.813782,14.411621 C265.76004,13.834229 264.939117,13.149658 264.350403,12.35791 C263.761292,11.565918 263.466278,10.626221 263.466278,9.537598 C263.466278,8.514893 263.653687,7.616699 264.029205,6.84082 C264.403809,6.065918 265.054962,5.40625 265.983704,4.862061 C266.911713,4.317627 268.170441,3.905518 269.759644,3.624023 C271.348328,3.344971 273.338715,3.20459 275.731659,3.20459 C277.373779,3.20459 278.927124,3.29541 280.391693,3.476318 C281.855408,3.657959 283.149597,4.0625 284.274567,4.688721 C285.399139,5.31543 286.29126,6.230957 286.952087,7.43457 C287.612915,8.63916 287.943268,10.247559 287.943268,12.259521 L290.621704,12.259521 C290.621704,10.082031 290.281311,8.243408 289.604187,6.741699 C288.925446,5.241211 287.95166,4.028809 286.68457,3.10498 C285.417053,2.182617 283.863708,1.51416 282.025421,1.10083 C280.185455,0.688721 278.105804,0.482422 275.785461,0.482422 C270.536682,0.482422 266.68042,1.192871 264.216248,2.610352 C261.752441,4.028809 260.520447,6.321533 260.520447,9.487793 C260.520447,11.237061 260.886261,12.655029 261.618683,13.743408 C262.349976,14.83252 263.359589,15.731689 264.644623,16.439941 C265.930054,17.150391 267.474121,17.726562 269.277466,18.172852 C271.080414,18.61792 273.053375,19.087891 275.195831,19.583008 C276.338715,19.813232 277.650848,20.044922 279.132477,20.275391 C280.614227,20.50708 282.015869,20.869141 283.337524,21.364258 C284.657928,21.858887 285.773743,22.568359 286.68457,23.491699 C287.595367,24.415771 288.050476,25.702148 288.050476,27.351807 C288.050476,29.6604 287.014526,31.367432 284.944153,32.4729 C282.872925,33.578857 279.695404,34.130371 275.410461,34.130371 C273.731628,34.130371 272.116608,34.03125 270.563385,33.833252 C269.01004,33.635742 267.644135,33.215088 266.465881,32.571289 C265.287537,31.928711 264.350403,30.996338 263.653687,29.775391 C262.95752,28.55542 262.609619,26.905518 262.609619,24.827148 L259.931702,24.827148 C259.931702,27.004639 260.287872,28.844238 261.002502,30.345459 C261.716736,31.846191 262.724945,33.05835 264.029205,33.981201 C265.332031,34.905518 266.929626,35.57373 268.822876,35.98584 C270.714203,36.397949 272.83963,36.604248 275.195831,36.604248 C280.659119,36.604248 284.657928,35.869629 287.193695,34.402588 C289.728302,32.935059 290.996307,30.5354 290.996307,27.202393 C290.996307,25.553223 290.683746,24.168213 290.059174,23.045898 C289.433807,21.925293 288.479614,20.976318 287.193695,20.201172 Z" id="path166"></path>
                        <polygon id="path167" points="300.154633 19.780762 323.185852 19.780762 323.185852 17.305908 300.154633 17.305908 300.154633 3.699219 325.327942 3.699219 325.327942 1.224609 300.154633 1.224609 297.476715 1.224609 297.476715 3.699219 297.476715 17.305908 297.476715 19.780762 297.476715 33.388428 297.476715 35.862061 300.154633 35.862061 325.86377 35.862061 325.86377 33.388428 300.154633 33.388428"></polygon>
                        <path d="M360.382843,23.045898 C359.758392,21.925293 358.803314,20.976318 357.517517,20.201172 C356.232086,19.426758 354.616302,18.782471 352.670807,18.27124 C350.724182,17.760498 348.447937,17.290039 345.841217,16.861328 C344.05545,16.564209 342.422119,16.226807 340.940369,15.845947 C339.45874,15.467529 338.190857,14.98877 337.137878,14.411621 C336.084106,13.834229 335.263336,13.149658 334.674591,12.35791 C334.084961,11.565918 333.790466,10.626221 333.790466,9.537598 C333.790466,8.514893 333.977905,7.616699 334.352875,6.84082 C334.727875,6.065918 335.37915,5.40625 336.307526,4.862061 C337.235413,4.317627 338.494629,3.905518 340.08371,3.624023 C341.672516,3.344971 343.662903,3.20459 346.055359,3.20459 C347.697449,3.20459 349.251312,3.29541 350.715393,3.476318 C352.17923,3.657959 353.473816,4.0625 354.598389,4.688721 C355.723328,5.31543 356.615448,6.230957 357.276672,7.43457 C357.937134,8.63916 358.267487,10.247559 358.267487,12.259521 L360.945404,12.259521 C360.945404,10.082031 360.605896,8.243408 359.927887,6.741699 C359.249115,5.241211 358.275879,4.028809 357.008759,3.10498 C355.741272,2.182617 354.187531,1.51416 352.349609,1.10083 C350.509521,0.688721 348.429993,0.482422 346.109528,0.482422 C340.860382,0.482422 337.004608,1.192871 334.540833,2.610352 C332.07666,4.028809 330.844635,6.321533 330.844635,9.487793 C330.844635,11.237061 331.210449,12.655029 331.942871,13.743408 C332.674164,14.83252 333.683289,15.731689 334.968689,16.439941 C336.25412,17.150391 337.798309,17.726562 339.601654,18.172852 C341.404236,18.61792 343.377441,19.087891 345.52002,19.583008 C346.662903,19.813232 347.975037,20.044922 349.456665,20.275391 C350.938293,20.50708 352.339935,20.869141 353.661621,21.364258 C354.981628,21.858887 356.098328,22.568359 357.008759,23.491699 C357.919189,24.415771 358.374542,25.702148 358.374542,27.351807 C358.374542,29.6604 357.338715,31.367432 355.267975,32.4729 C353.197113,33.578857 350.019592,34.130371 345.735046,34.130371 C344.05545,34.130371 342.440796,34.03125 340.887085,33.833252 C339.334106,33.635742 337.967957,33.215088 336.789581,32.571289 C335.611237,31.928711 334.674591,30.996338 333.977905,29.775391 C333.281708,28.55542 332.933685,26.905518 332.933685,24.827148 L330.255768,24.827148 C330.255768,27.004639 330.612061,28.844238 331.326691,30.345459 C332.040405,31.846191 333.048767,33.05835 334.352875,33.981201 C335.655853,34.905518 337.253326,35.57373 339.146698,35.98584 C341.038391,36.397949 343.1633,36.604248 345.52002,36.604248 C350.982941,36.604248 354.981628,35.869629 357.517517,34.402588 C360.052887,32.935059 361.320374,30.5354 361.320374,27.202393 C361.320374,25.553223 361.007446,24.168213 360.382843,23.045898 Z" id="path168"></path>
                    </g>
                </g>
            </g>
        </g>
    </g>
</svg>