<?xml version="1.0" encoding="UTF-8"?>
<svg width="294px" height="295px" viewBox="0 0 294 295" version="1.1" xmlns="http://www.w3.org/2000/svg" xmlns:xlink="http://www.w3.org/1999/xlink">
    <!-- Generator: Sketch 52.5 (67469) - http://www.bohemiancoding.com/sketch -->
    <title>path191</title>
    <desc>Created with Sketch.</desc>
    <defs>
        <linearGradient x1="-18.8175529%" y1="60.0685418%" x2="62.0776464%" y2="-26.210555%" id="linearGradient-1">
            <stop stop-color="#C95920" offset="7.7163%"></stop>
            <stop stop-color="#FFB970" offset="36.4823%"></stop>
            <stop stop-color="#FFB970" offset="48.0139%"></stop>
            <stop stop-color="#D56E29" offset="72.2887%"></stop>
            <stop stop-color="#B95B17" offset="100%"></stop>
        </linearGradient>
    </defs>
    <g id="Page-1" stroke="none" stroke-width="1" fill="none" fill-rule="evenodd">
        <g id="logotype_horiz_white" transform="translate(-537.000000, -536.000000)" fill="url(#linearGradient-1)" fill-rule="nonzero">
            <path d="M753.320816,736.397949 C751.945801,738.205322 749.280853,738.377197 747.675446,736.77124 L747.675003,736.77124 C746.35498,735.450928 746.203354,733.357178 747.333771,731.871338 C771.16539,700.552002 768.798309,655.536133 740.212112,626.949951 C713.619598,600.357422 672.809601,596.456299 642.033325,615.226318 C642.266266,617.651611 641.454559,620.157471 639.597046,622.014648 C635.903351,625.708252 629.641663,625.268311 626.559998,620.695068 C624.647064,617.855713 624.698761,614.01709 626.672089,611.219971 C629.391296,607.365967 634.411224,606.587402 638.073334,608.863037 C671.747894,588.287842 716.418762,592.526611 745.526688,621.635498 C761.335815,637.444092 769.80043,657.845947 770.950439,678.58252 L830.092484,678.58252 C829.033333,669.664551 825.116661,661.020508 818.273727,654.17749 L712.984589,548.888428 C696.792908,532.696289 670.540802,532.696289 654.348755,548.888428 L549.059601,654.17749 C542.216675,661.020508 538.299561,669.664551 537.240845,678.58252 L596.390411,678.58252 C597.34375,661.577881 603.207886,644.79834 614.012512,630.592529 C615.387085,628.784912 618.05249,628.613281 619.658325,630.219482 C620.977905,631.539551 621.129974,633.633301 619.999573,635.119141 C596.167938,666.438721 598.5354,711.45459 627.121216,740.040771 C653.713715,766.633301 694.523361,770.534668 725.300018,751.76416 C725.067062,749.3396 725.87915,746.833008 727.736267,744.97583 C731.429977,741.281982 737.691681,741.722168 740.773315,746.295898 C742.686264,749.13501 742.634583,752.973633 740.660858,755.770752 C737.941666,759.625 732.922104,760.403809 729.259995,758.12793 C695.585434,778.702881 650.915009,774.463867 621.806641,745.355957 C605.997528,729.546387 597.532898,709.14502 596.382904,688.408447 L537.240845,688.408447 C538.299561,697.326172 542.216675,705.969971 549.059601,712.813477 L654.348755,818.102539 C670.540802,834.294189 696.792908,834.294189 712.984589,818.102539 L818.273727,712.813477 C825.116661,705.969971 829.033783,697.326172 830.092484,688.408447 L770.942932,688.408447 C769.989578,705.41333 764.125427,722.192383 753.320816,736.397949 Z M710.573318,710.402588 C695.713348,725.262451 671.61998,725.262451 656.76001,710.402588 C641.89917,695.541748 641.89917,671.44873 656.76001,656.588379 C671.61998,641.728271 695.713348,641.728271 710.573318,656.588379 C725.433716,671.44873 725.433716,695.541748 710.573318,710.402588 Z" id="path191"></path>
        </g>
    </g>
</svg>